<svg id="e939d086-638f-4996-87fc-c8f8e2e76ed8" xmlns="http://www.w3.org/2000/svg" xmlns:xlink="http://www.w3.org/1999/xlink" viewBox="0 0 887.82 625.38"><defs><style>.cls-1{fill:none;}.cls-2{fill:url(#linear-gradient);}.cls-3{fill:#fff;}.cls-4{fill:url(#linear-gradient-2);}.cls-5{clip-path:url(#clip-path);}.cls-6{fill:#c9283d;}.cls-7{fill:#ff5252;}</style><linearGradient id="linear-gradient" x1="600" y1="-126" x2="600" y2="482" gradientTransform="matrix(1, 0, 0, -1, -163.46, 482.02)" gradientUnits="userSpaceOnUse"><stop offset="0" stop-color="gray" stop-opacity="0.25"/><stop offset="0.54" stop-color="gray" stop-opacity="0.12"/><stop offset="1" stop-color="gray" stop-opacity="0.1"/></linearGradient><linearGradient id="linear-gradient-2" x1="437.25" y1="53.49" x2="437.25" y2="591.38" gradientTransform="matrix(1, 0, 0, -1, 0, 627.98)" xlink:href="#linear-gradient"/><clipPath id="clip-path" transform="translate(0 -0.02)"><rect class="cls-1" x="53.19" y="49" width="767.31" height="510.36" rx="8.85"/></clipPath></defs><title>imgUpload</title><path class="cls-2" d="M872.54,588.88a19.06,19.06,0,0,1-19,19.14h-834a19.06,19.06,0,0,1-19-19.12V19.16A19.06,19.06,0,0,1,19.52,0h834a19.06,19.06,0,0,1,19,19.12v0" transform="translate(0 -0.02)"/><path class="cls-3" d="M862.73,579.56a18.52,18.52,0,0,1-18.52,18.52H29.47A18.52,18.52,0,0,1,11,579.56h0V28.8A18.52,18.52,0,0,1,29.47,10.28H844.21A18.52,18.52,0,0,1,862.73,28.8" transform="translate(0 -0.02)"/><rect class="cls-4" x="43.49" y="36.6" width="787.52" height="537.89" rx="8.85"/><rect class="cls-3" x="53.19" y="48.98" width="767.31" height="510.36" rx="8.85"/><g class="cls-5"><path class="cls-6" d="M10.54,554.68,224.75,309.21a42.64,42.64,0,0,1,60.16-4.1l.18.16,60,52.93a42.64,42.64,0,0,0,55.65.67L584.06,204.75a42.64,42.64,0,0,1,59,4l225,247.64A42.6,42.6,0,0,1,879,481.29L887.65,579A42.64,42.64,0,0,1,849,625.23c-1.26.11-2.53.17-3.79.17H42.65A42.65,42.65,0,0,1,0,584H0A42.66,42.66,0,0,1,10.54,554.68Z" transform="translate(0 -0.02)"/></g><circle class="cls-7" cx="145.58" cy="130.81" r="47.52"/></svg>